<svg width="433" height="182" viewBox="0 0 433 182" fill="none" xmlns="http://www.w3.org/2000/svg">
<path d="M45.392 94.008C41.416 94.008 37.72 93.28 34.304 91.824C30.944 90.368 28.032 88.352 25.568 85.776C23.16 83.144 21.396 80.092 20.276 76.62L29.768 72.504C31.28 76.088 33.464 78.916 36.32 80.988C39.176 83.004 42.396 84.012 45.98 84.012C47.996 84.012 49.732 83.704 51.188 83.088C52.7 82.416 53.848 81.52 54.632 80.4C55.472 79.28 55.892 77.936 55.892 76.368C55.892 74.52 55.332 73.008 54.212 71.832C53.148 70.6 51.524 69.648 49.34 68.976L37.328 65.112C32.456 63.6 28.788 61.332 26.324 58.308C23.86 55.284 22.628 51.728 22.628 47.64C22.628 44.056 23.496 40.892 25.232 38.148C27.024 35.404 29.488 33.276 32.624 31.764C35.816 30.196 39.456 29.412 43.544 29.412C47.296 29.412 50.74 30.084 53.876 31.428C57.012 32.716 59.7 34.536 61.94 36.888C64.236 39.184 65.944 41.9 67.064 45.036L57.656 49.236C56.424 46.1 54.576 43.692 52.112 42.012C49.648 40.276 46.792 39.408 43.544 39.408C41.64 39.408 39.96 39.744 38.504 40.416C37.048 41.032 35.9 41.928 35.06 43.104C34.276 44.224 33.884 45.568 33.884 47.136C33.884 48.872 34.444 50.412 35.564 51.756C36.684 53.044 38.392 54.052 40.688 54.78L52.196 58.392C57.18 60.016 60.904 62.256 63.368 65.112C65.888 67.968 67.148 71.496 67.148 75.696C67.148 79.28 66.224 82.444 64.376 85.188C62.528 87.932 59.98 90.088 56.732 91.656C53.484 93.224 49.704 94.008 45.392 94.008ZM91.508 93V65.28L70.424 30.42H83.444L99.572 57.636H94.952L110.996 30.42H124.016L103.016 65.196V93H91.508ZM131.001 93V30.42H141.921L165.357 62.256H160.149L183.081 30.42H194.001V93H182.493V43.44L186.945 44.532L163.173 76.2H161.829L138.645 44.532L142.425 43.44V93H131.001ZM205.978 93V30.42H229.33C233.586 30.42 237.338 31.204 240.586 32.772C243.89 34.284 246.466 36.524 248.314 39.492C250.162 42.404 251.086 45.96 251.086 50.16C251.086 54.304 250.134 57.86 248.23 60.828C246.382 63.74 243.834 65.98 240.586 67.548C237.338 69.116 233.586 69.9 229.33 69.9H217.402V93H205.978ZM217.402 59.82H229.498C231.57 59.82 233.362 59.428 234.874 58.644C236.386 57.804 237.562 56.656 238.402 55.2C239.242 53.744 239.662 52.064 239.662 50.16C239.662 48.2 239.242 46.52 238.402 45.12C237.562 43.664 236.386 42.544 234.874 41.76C233.362 40.92 231.57 40.5 229.498 40.5H217.402V59.82Z" fill="#2549AC"/>
<path d="M271.534 93V40.5H255.322V30.42H299.002V40.5H283.042V93H271.534ZM305.974 93V30.42H329.242C333.498 30.42 337.25 31.204 340.498 32.772C343.802 34.284 346.378 36.524 348.226 39.492C350.074 42.404 350.998 45.96 350.998 50.16C350.998 54.472 349.962 58.14 347.89 61.164C345.874 64.188 343.13 66.428 339.658 67.884L354.022 93H341.086L325.714 65.532L333.106 69.9H317.398V93H305.974ZM317.398 59.82H329.41C331.482 59.82 333.274 59.428 334.786 58.644C336.298 57.804 337.474 56.656 338.314 55.2C339.154 53.744 339.574 52.064 339.574 50.16C339.574 48.2 339.154 46.52 338.314 45.12C337.474 43.664 336.298 42.544 334.786 41.76C333.274 40.92 331.482 40.5 329.41 40.5H317.398V59.82ZM356.385 93L377.973 30.42H392.757L414.345 93H401.913L397.461 79.56H373.269L368.733 93H356.385ZM376.545 69.48H394.185L383.769 38.316H386.961L376.545 69.48Z" fill="#E98835"/>
<path d="M23.952 146.264C22.9253 146.264 21.9867 146.081 21.136 145.714C20.3 145.333 19.596 144.805 19.024 144.13C18.452 143.441 18.0633 142.649 17.858 141.754L19.794 141.094C20.058 142.15 20.5567 142.957 21.29 143.514C22.038 144.057 22.9547 144.328 24.04 144.328C24.7733 144.328 25.3967 144.211 25.91 143.976C26.438 143.727 26.834 143.389 27.098 142.964C27.3767 142.539 27.516 142.069 27.516 141.556C27.516 140.984 27.34 140.515 26.988 140.148C26.6507 139.767 26.1447 139.473 25.47 139.268L22.61 138.344C21.5393 138.007 20.7253 137.486 20.168 136.782C19.6107 136.063 19.332 135.22 19.332 134.252C19.332 133.357 19.5667 132.536 20.036 131.788C20.5053 131.04 21.1507 130.446 21.972 130.006C22.808 129.566 23.7613 129.346 24.832 129.346C25.8147 129.346 26.6873 129.529 27.45 129.896C28.2273 130.248 28.8653 130.725 29.364 131.326C29.8773 131.927 30.222 132.609 30.398 133.372L28.506 134.054C28.286 133.174 27.846 132.492 27.186 132.008C26.5407 131.524 25.7487 131.282 24.81 131.282C24.1647 131.282 23.5853 131.399 23.072 131.634C22.5733 131.869 22.1847 132.199 21.906 132.624C21.6273 133.035 21.488 133.519 21.488 134.076C21.488 134.604 21.6493 135.081 21.972 135.506C22.3093 135.917 22.8373 136.232 23.556 136.452L26.152 137.288C27.34 137.669 28.2273 138.212 28.814 138.916C29.4007 139.62 29.694 140.456 29.694 141.424C29.694 142.289 29.452 143.089 28.968 143.822C28.4987 144.555 27.8387 145.149 26.988 145.604C26.1373 146.044 25.1253 146.264 23.952 146.264ZM36.9416 146.132C35.7683 146.132 34.903 145.795 34.3456 145.12C33.7883 144.445 33.5903 143.499 33.7516 142.282L34.6096 136.1H32.4756L32.7396 134.142H33.1356C33.6636 134.142 34.111 133.973 34.4776 133.636C34.859 133.299 35.079 132.866 35.1376 132.338L35.2696 131.414H37.3596L36.9856 134.142H39.6036L39.3176 136.1H36.6996L35.8196 142.348C35.761 142.744 35.7683 143.089 35.8416 143.382C35.915 143.661 36.0763 143.881 36.3256 144.042C36.575 144.189 36.9343 144.262 37.4036 144.262C37.5356 144.262 37.675 144.255 37.8216 144.24C37.983 144.225 38.1296 144.211 38.2616 144.196L38.1076 146.022C37.917 146.081 37.7043 146.11 37.4696 146.11C37.2496 146.125 37.0736 146.132 36.9416 146.132ZM44.3699 146.264C43.6952 146.264 43.0646 146.147 42.4779 145.912C41.9059 145.663 41.4439 145.303 41.0919 144.834C40.7399 144.35 40.5639 143.749 40.5639 143.03C40.5639 142.341 40.7326 141.732 41.0699 141.204C41.4219 140.661 41.9132 140.221 42.5439 139.884C43.1892 139.532 43.9446 139.29 44.8099 139.158L49.2979 138.432L49.1219 140.148L45.1619 140.83C44.4139 140.962 43.8199 141.211 43.3799 141.578C42.9399 141.93 42.7199 142.377 42.7199 142.92C42.7199 143.419 42.9032 143.815 43.2699 144.108C43.6512 144.387 44.1426 144.526 44.7439 144.526C45.4332 144.526 46.0566 144.365 46.6139 144.042C47.1859 143.719 47.6552 143.287 48.0219 142.744C48.4032 142.187 48.6379 141.578 48.7259 140.918L49.0999 138.102C49.1879 137.574 49.1219 137.141 48.9019 136.804C48.6819 136.452 48.3739 136.195 47.9779 136.034C47.5966 135.858 47.1859 135.77 46.7459 135.77C46.0272 135.77 45.3819 135.953 44.8099 136.32C44.2526 136.687 43.8199 137.149 43.5119 137.706L41.7959 136.672C42.0892 136.129 42.4852 135.653 42.9839 135.242C43.4972 134.817 44.0839 134.487 44.7439 134.252C45.4186 134.003 46.1299 133.878 46.8779 133.878C47.7579 133.878 48.5426 134.061 49.2319 134.428C49.9359 134.795 50.4639 135.301 50.8159 135.946C51.1826 136.591 51.3072 137.339 51.1899 138.19L50.0899 146H48.0659L48.3739 143.756L48.8139 143.954C48.5059 144.423 48.1246 144.834 47.6699 145.186C47.2152 145.523 46.7092 145.787 46.1519 145.978C45.5946 146.169 45.0006 146.264 44.3699 146.264ZM53.2617 146L54.9337 134.142H56.9577L56.6497 136.32L56.4517 136.012C56.833 135.337 57.3317 134.839 57.9477 134.516C58.5637 134.179 59.2823 134.01 60.1037 134.01H60.8297L60.5437 135.946H59.5097C58.6737 135.946 57.9697 136.217 57.3977 136.76C56.8257 137.288 56.459 138.087 56.2977 139.158L55.3517 146H53.2617ZM65.9885 146.132C64.8152 146.132 63.9498 145.795 63.3925 145.12C62.8352 144.445 62.6372 143.499 62.7985 142.282L63.6565 136.1H61.5225L61.7865 134.142H62.1825C62.7105 134.142 63.1578 133.973 63.5245 133.636C63.9058 133.299 64.1258 132.866 64.1845 132.338L64.3165 131.414H66.4065L66.0325 134.142H68.6505L68.3645 136.1H65.7465L64.8665 142.348C64.8078 142.744 64.8152 143.089 64.8885 143.382C64.9618 143.661 65.1232 143.881 65.3725 144.042C65.6218 144.189 65.9812 144.262 66.4505 144.262C66.5825 144.262 66.7218 144.255 66.8685 144.24C67.0298 144.225 67.1765 144.211 67.3085 144.196L67.1545 146.022C66.9638 146.081 66.7512 146.11 66.5165 146.11C66.2965 146.125 66.1205 146.132 65.9885 146.132ZM76.3783 146L73.9803 134.142H76.1363L77.9843 144.064L77.1923 144.042L81.8123 134.142H83.7483L85.5303 144.042L84.7383 144.064L89.3583 134.142H91.6683L85.9263 146H83.9683L82.2523 136.1H82.9343L78.3363 146H76.3783ZM91.8261 146L93.4981 134.142H95.5661L93.9161 146H91.8261ZM93.7621 132.25L94.1141 129.61H96.2041L95.8521 132.25H93.7621ZM102.018 146.132C100.844 146.132 99.9791 145.795 99.4218 145.12C98.8645 144.445 98.6665 143.499 98.8278 142.282L99.6858 136.1H97.5518L97.8158 134.142H98.2118C98.7398 134.142 99.1871 133.973 99.5538 133.636C99.9351 133.299 100.155 132.866 100.214 132.338L100.346 131.414H102.436L102.062 134.142H104.68L104.394 136.1H101.776L100.896 142.348C100.837 142.744 100.844 143.089 100.918 143.382C100.991 143.661 101.152 143.881 101.402 144.042C101.651 144.189 102.01 144.262 102.48 144.262C102.612 144.262 102.751 144.255 102.898 144.24C103.059 144.225 103.206 144.211 103.338 144.196L103.184 146.022C102.993 146.081 102.78 146.11 102.546 146.11C102.326 146.125 102.15 146.132 102.018 146.132ZM105.877 146L108.209 129.346H110.277L109.287 136.452L108.935 136.21C109.316 135.462 109.859 134.89 110.563 134.494C111.267 134.083 112.037 133.878 112.873 133.878C113.738 133.878 114.486 134.083 115.117 134.494C115.748 134.905 116.21 135.469 116.503 136.188C116.811 136.892 116.899 137.699 116.767 138.608L115.733 146H113.643L114.655 138.784C114.772 137.889 114.611 137.178 114.171 136.65C113.731 136.122 113.108 135.858 112.301 135.858C111.744 135.858 111.223 135.99 110.739 136.254C110.27 136.503 109.874 136.863 109.551 137.332C109.228 137.801 109.023 138.359 108.935 139.004L107.967 146H105.877ZM126.885 146.264C126.108 146.264 125.389 146.132 124.729 145.868C124.084 145.589 123.534 145.201 123.079 144.702C122.625 144.203 122.309 143.624 122.133 142.964L123.827 142.282C124.091 142.971 124.502 143.514 125.059 143.91C125.631 144.306 126.284 144.504 127.017 144.504C127.721 144.504 128.286 144.335 128.711 143.998C129.151 143.646 129.371 143.213 129.371 142.7C129.371 142.319 129.232 142.011 128.953 141.776C128.675 141.527 128.286 141.336 127.787 141.204L126.049 140.72C125.155 140.471 124.465 140.082 123.981 139.554C123.512 139.011 123.277 138.366 123.277 137.618C123.277 136.929 123.475 136.305 123.871 135.748C124.267 135.176 124.795 134.721 125.455 134.384C126.13 134.047 126.871 133.878 127.677 133.878C128.763 133.878 129.694 134.157 130.471 134.714C131.263 135.257 131.777 135.997 132.011 136.936L130.295 137.618C130.09 136.987 129.745 136.503 129.261 136.166C128.792 135.829 128.235 135.66 127.589 135.66C126.929 135.66 126.394 135.821 125.983 136.144C125.573 136.467 125.367 136.877 125.367 137.376C125.367 137.757 125.485 138.065 125.719 138.3C125.969 138.535 126.335 138.725 126.819 138.872L128.689 139.444C129.584 139.708 130.266 140.111 130.735 140.654C131.219 141.182 131.461 141.82 131.461 142.568C131.461 143.257 131.263 143.881 130.867 144.438C130.471 144.995 129.921 145.443 129.217 145.78C128.528 146.103 127.751 146.264 126.885 146.264ZM133.507 150.84C133.228 150.84 132.957 150.811 132.693 150.752C132.414 150.708 132.165 150.642 131.945 150.554L132.099 148.75C132.26 148.779 132.458 148.809 132.693 148.838C132.913 148.882 133.126 148.904 133.331 148.904C133.815 148.904 134.218 148.831 134.541 148.684C134.878 148.537 135.179 148.31 135.443 148.002C135.722 147.694 136 147.305 136.279 146.836L137.313 145.098L137.071 146.88L133.793 134.142H135.949L138.457 144.262H137.709L143.143 134.142H145.475L138.259 147.452C137.922 148.097 137.526 148.677 137.071 149.19C136.616 149.703 136.096 150.107 135.509 150.4C134.922 150.693 134.255 150.84 133.507 150.84ZM145.623 146L147.295 134.142H149.297L148.989 136.474L148.747 136.122C149.158 135.374 149.686 134.817 150.331 134.45C150.991 134.069 151.717 133.878 152.509 133.878C153.448 133.878 154.247 134.135 154.907 134.648C155.582 135.161 156.014 135.851 156.205 136.716H155.589C156.029 135.748 156.645 135.037 157.437 134.582C158.244 134.113 159.102 133.878 160.011 133.878C160.847 133.878 161.573 134.076 162.189 134.472C162.805 134.868 163.267 135.418 163.575 136.122C163.898 136.826 163.993 137.633 163.861 138.542L162.827 146H160.759L161.749 138.784C161.837 138.183 161.793 137.669 161.617 137.244C161.456 136.804 161.192 136.467 160.825 136.232C160.473 135.983 160.033 135.858 159.505 135.858C158.992 135.858 158.5 135.975 158.031 136.21C157.562 136.445 157.166 136.782 156.843 137.222C156.535 137.662 156.337 138.19 156.249 138.806L155.259 146H153.191L154.203 138.784C154.276 138.183 154.225 137.669 154.049 137.244C153.888 136.804 153.624 136.467 153.257 136.232C152.905 135.983 152.465 135.858 151.937 135.858C151.409 135.858 150.91 135.99 150.441 136.254C149.972 136.503 149.583 136.863 149.275 137.332C148.967 137.801 148.762 138.359 148.659 139.004L147.691 146H145.623ZM165.116 150.4L167.404 134.142H169.428L169.076 136.694L168.504 136.166C169.003 135.447 169.641 134.89 170.418 134.494C171.21 134.083 172.083 133.878 173.036 133.878C174.136 133.878 175.104 134.135 175.94 134.648C176.776 135.161 177.422 135.851 177.876 136.716C178.346 137.581 178.58 138.557 178.58 139.642C178.58 140.537 178.419 141.387 178.096 142.194C177.788 142.986 177.348 143.69 176.776 144.306C176.204 144.922 175.537 145.406 174.774 145.758C174.012 146.095 173.183 146.264 172.288 146.264C171.291 146.264 170.382 146.044 169.56 145.604C168.754 145.164 168.152 144.563 167.756 143.8L168.196 143.47L167.25 150.4H165.116ZM172.156 144.284C172.978 144.284 173.704 144.071 174.334 143.646C174.965 143.221 175.464 142.663 175.83 141.974C176.212 141.27 176.402 140.5 176.402 139.664C176.402 138.931 176.248 138.278 175.94 137.706C175.632 137.134 175.207 136.687 174.664 136.364C174.136 136.027 173.506 135.858 172.772 135.858C171.966 135.858 171.24 136.071 170.594 136.496C169.964 136.907 169.465 137.457 169.098 138.146C168.746 138.835 168.57 139.591 168.57 140.412C168.57 141.16 168.724 141.827 169.032 142.414C169.34 143.001 169.766 143.463 170.308 143.8C170.851 144.123 171.467 144.284 172.156 144.284ZM185.141 146.132C183.968 146.132 183.102 145.795 182.545 145.12C181.988 144.445 181.79 143.499 181.951 142.282L182.809 136.1H180.675L180.939 134.142H181.335C181.863 134.142 182.31 133.973 182.677 133.636C183.058 133.299 183.278 132.866 183.337 132.338L183.469 131.414H185.559L185.185 134.142H187.803L187.517 136.1H184.899L184.019 142.348C183.96 142.744 183.968 143.089 184.041 143.382C184.114 143.661 184.276 143.881 184.525 144.042C184.774 144.189 185.134 144.262 185.603 144.262C185.735 144.262 185.874 144.255 186.021 144.24C186.182 144.225 186.329 144.211 186.461 144.196L186.307 146.022C186.116 146.081 185.904 146.11 185.669 146.11C185.449 146.125 185.273 146.132 185.141 146.132ZM194.795 146.264C193.709 146.264 192.727 146.015 191.847 145.516C190.981 145.017 190.292 144.328 189.779 143.448C189.265 142.568 189.009 141.556 189.009 140.412C189.009 139.503 189.17 138.659 189.493 137.882C189.83 137.09 190.292 136.393 190.879 135.792C191.465 135.191 192.147 134.721 192.925 134.384C193.717 134.047 194.56 133.878 195.455 133.878C196.555 133.878 197.537 134.127 198.403 134.626C199.283 135.125 199.979 135.814 200.493 136.694C201.006 137.559 201.263 138.557 201.263 139.686C201.263 140.595 201.094 141.446 200.757 142.238C200.419 143.03 199.95 143.734 199.349 144.35C198.747 144.951 198.058 145.421 197.281 145.758C196.503 146.095 195.675 146.264 194.795 146.264ZM194.773 144.284C195.594 144.284 196.327 144.071 196.973 143.646C197.618 143.221 198.131 142.663 198.513 141.974C198.894 141.27 199.085 140.5 199.085 139.664C199.085 138.931 198.931 138.278 198.623 137.706C198.315 137.134 197.882 136.687 197.325 136.364C196.782 136.027 196.159 135.858 195.455 135.858C194.663 135.858 193.937 136.071 193.277 136.496C192.631 136.907 192.118 137.457 191.737 138.146C191.37 138.835 191.187 139.605 191.187 140.456C191.187 141.189 191.341 141.849 191.649 142.436C191.957 143.008 192.382 143.463 192.925 143.8C193.467 144.123 194.083 144.284 194.773 144.284ZM203.094 146L204.766 134.142H206.768L206.46 136.474L206.218 136.122C206.628 135.374 207.156 134.817 207.802 134.45C208.462 134.069 209.188 133.878 209.98 133.878C210.918 133.878 211.718 134.135 212.378 134.648C213.052 135.161 213.485 135.851 213.676 136.716H213.06C213.5 135.748 214.116 135.037 214.908 134.582C215.714 134.113 216.572 133.878 217.482 133.878C218.318 133.878 219.044 134.076 219.66 134.472C220.276 134.868 220.738 135.418 221.046 136.122C221.368 136.826 221.464 137.633 221.332 138.542L220.298 146H218.23L219.22 138.784C219.308 138.183 219.264 137.669 219.088 137.244C218.926 136.804 218.662 136.467 218.296 136.232C217.944 135.983 217.504 135.858 216.976 135.858C216.462 135.858 215.971 135.975 215.502 136.21C215.032 136.445 214.636 136.782 214.314 137.222C214.006 137.662 213.808 138.19 213.72 138.806L212.73 146H210.662L211.674 138.784C211.747 138.183 211.696 137.669 211.52 137.244C211.358 136.804 211.094 136.467 210.728 136.232C210.376 135.983 209.936 135.858 209.408 135.858C208.88 135.858 208.381 135.99 207.912 136.254C207.442 136.503 207.054 136.863 206.746 137.332C206.438 137.801 206.232 138.359 206.13 139.004L205.162 146H203.094ZM227.647 146.264C226.87 146.264 226.151 146.132 225.491 145.868C224.846 145.589 224.296 145.201 223.841 144.702C223.386 144.203 223.071 143.624 222.895 142.964L224.589 142.282C224.853 142.971 225.264 143.514 225.821 143.91C226.393 144.306 227.046 144.504 227.779 144.504C228.483 144.504 229.048 144.335 229.473 143.998C229.913 143.646 230.133 143.213 230.133 142.7C230.133 142.319 229.994 142.011 229.715 141.776C229.436 141.527 229.048 141.336 228.549 141.204L226.811 140.72C225.916 140.471 225.227 140.082 224.743 139.554C224.274 139.011 224.039 138.366 224.039 137.618C224.039 136.929 224.237 136.305 224.633 135.748C225.029 135.176 225.557 134.721 226.217 134.384C226.892 134.047 227.632 133.878 228.439 133.878C229.524 133.878 230.456 134.157 231.233 134.714C232.025 135.257 232.538 135.997 232.773 136.936L231.057 137.618C230.852 136.987 230.507 136.503 230.023 136.166C229.554 135.829 228.996 135.66 228.351 135.66C227.691 135.66 227.156 135.821 226.745 136.144C226.334 136.467 226.129 136.877 226.129 137.376C226.129 137.757 226.246 138.065 226.481 138.3C226.73 138.535 227.097 138.725 227.581 138.872L229.451 139.444C230.346 139.708 231.028 140.111 231.497 140.654C231.981 141.182 232.223 141.82 232.223 142.568C232.223 143.257 232.025 143.881 231.629 144.438C231.233 144.995 230.683 145.443 229.979 145.78C229.29 146.103 228.512 146.264 227.647 146.264ZM235.275 146L235.649 143.36H237.805L237.409 146H235.275ZM245.467 146L247.755 129.61H258.161L257.897 131.59H249.669L248.921 136.892H256.357L256.093 138.872H248.635L247.645 146H245.467ZM258.051 146L259.723 134.142H261.791L260.141 146H258.051ZM259.987 132.25L260.339 129.61H262.429L262.077 132.25H259.987ZM263.314 146L264.986 134.142H266.988L266.68 136.452L266.372 136.21C266.754 135.462 267.296 134.89 268 134.494C268.704 134.083 269.474 133.878 270.31 133.878C271.176 133.878 271.924 134.083 272.554 134.494C273.185 134.905 273.647 135.469 273.94 136.188C274.248 136.892 274.336 137.699 274.204 138.608L273.17 146H271.102L272.114 138.784C272.232 137.889 272.07 137.178 271.63 136.65C271.19 136.122 270.56 135.858 269.738 135.858C269.166 135.858 268.638 135.99 268.154 136.254C267.685 136.503 267.289 136.863 266.966 137.332C266.658 137.801 266.453 138.359 266.35 139.004L265.382 146H263.314ZM281.928 146.264C280.857 146.264 279.904 146.022 279.068 145.538C278.232 145.039 277.579 144.365 277.11 143.514C276.655 142.649 276.428 141.666 276.428 140.566C276.428 139.627 276.582 138.755 276.89 137.948C277.213 137.127 277.66 136.415 278.232 135.814C278.819 135.213 279.493 134.743 280.256 134.406C281.033 134.054 281.869 133.878 282.764 133.878C283.805 133.878 284.7 134.098 285.448 134.538C286.211 134.963 286.797 135.543 287.208 136.276L286.856 136.694L287.868 129.346H289.958L287.648 146H285.624L285.954 143.47L286.504 143.8C286.049 144.592 285.411 145.201 284.59 145.626C283.769 146.051 282.881 146.264 281.928 146.264ZM282.148 144.284C282.955 144.284 283.681 144.071 284.326 143.646C284.986 143.221 285.499 142.663 285.866 141.974C286.247 141.27 286.438 140.507 286.438 139.686C286.438 138.953 286.284 138.3 285.976 137.728C285.668 137.156 285.243 136.701 284.7 136.364C284.157 136.027 283.534 135.858 282.83 135.858C282.023 135.858 281.297 136.071 280.652 136.496C280.007 136.921 279.501 137.486 279.134 138.19C278.782 138.894 278.606 139.671 278.606 140.522C278.606 141.241 278.753 141.886 279.046 142.458C279.354 143.015 279.772 143.463 280.3 143.8C280.843 144.123 281.459 144.284 282.148 144.284ZM294.64 150.84C294.361 150.84 294.09 150.811 293.826 150.752C293.547 150.708 293.298 150.642 293.078 150.554L293.232 148.75C293.393 148.779 293.591 148.809 293.826 148.838C294.046 148.882 294.258 148.904 294.464 148.904C294.948 148.904 295.351 148.831 295.674 148.684C296.011 148.537 296.312 148.31 296.576 148.002C296.854 147.694 297.133 147.305 297.412 146.836L298.446 145.098L298.204 146.88L294.926 134.142H297.082L299.59 144.262H298.842L304.276 134.142H306.608L299.392 147.452C299.054 148.097 298.658 148.677 298.204 149.19C297.749 149.703 297.228 150.107 296.642 150.4C296.055 150.693 295.388 150.84 294.64 150.84ZM312.701 146.264C311.616 146.264 310.633 146.015 309.753 145.516C308.888 145.017 308.198 144.328 307.685 143.448C307.172 142.568 306.915 141.556 306.915 140.412C306.915 139.503 307.076 138.659 307.399 137.882C307.736 137.09 308.198 136.393 308.785 135.792C309.372 135.191 310.054 134.721 310.831 134.384C311.623 134.047 312.466 133.878 313.361 133.878C314.461 133.878 315.444 134.127 316.309 134.626C317.189 135.125 317.886 135.814 318.399 136.694C318.912 137.559 319.169 138.557 319.169 139.686C319.169 140.595 319 141.446 318.663 142.238C318.326 143.03 317.856 143.734 317.255 144.35C316.654 144.951 315.964 145.421 315.187 145.758C314.41 146.095 313.581 146.264 312.701 146.264ZM312.679 144.284C313.5 144.284 314.234 144.071 314.879 143.646C315.524 143.221 316.038 142.663 316.419 141.974C316.8 141.27 316.991 140.5 316.991 139.664C316.991 138.931 316.837 138.278 316.529 137.706C316.221 137.134 315.788 136.687 315.231 136.364C314.688 136.027 314.065 135.858 313.361 135.858C312.569 135.858 311.843 136.071 311.183 136.496C310.538 136.907 310.024 137.457 309.643 138.146C309.276 138.835 309.093 139.605 309.093 140.456C309.093 141.189 309.247 141.849 309.555 142.436C309.863 143.008 310.288 143.463 310.831 143.8C311.374 144.123 311.99 144.284 312.679 144.284ZM325.29 146.264C324.41 146.264 323.655 146.059 323.024 145.648C322.393 145.237 321.931 144.658 321.638 143.91C321.359 143.162 321.286 142.282 321.418 141.27L322.43 134.142H324.498L323.464 141.358C323.391 141.945 323.442 142.458 323.618 142.898C323.794 143.338 324.073 143.683 324.454 143.932C324.835 144.167 325.305 144.284 325.862 144.284C326.434 144.284 326.955 144.159 327.424 143.91C327.893 143.646 328.289 143.279 328.612 142.81C328.935 142.341 329.14 141.783 329.228 141.138L330.218 134.142H332.264L330.614 146H328.612L328.92 143.69L329.228 143.932C328.847 144.695 328.304 145.274 327.6 145.67C326.911 146.066 326.141 146.264 325.29 146.264ZM333.783 146L335.455 134.142H337.479L337.171 136.32L336.973 136.012C337.354 135.337 337.853 134.839 338.469 134.516C339.085 134.179 339.804 134.01 340.625 134.01H341.351L341.065 135.946H340.031C339.195 135.946 338.491 136.217 337.919 136.76C337.347 137.288 336.98 138.087 336.819 139.158L335.873 146H333.783ZM351.129 146.264C350.059 146.264 349.105 146.022 348.269 145.538C347.433 145.039 346.781 144.365 346.311 143.514C345.857 142.649 345.629 141.666 345.629 140.566C345.629 139.627 345.783 138.755 346.091 137.948C346.414 137.127 346.861 136.415 347.433 135.814C348.02 135.213 348.695 134.743 349.457 134.406C350.235 134.054 351.071 133.878 351.965 133.878C353.007 133.878 353.901 134.098 354.649 134.538C355.412 134.963 355.999 135.543 356.409 136.276L356.057 136.694L357.069 129.346H359.159L356.849 146H354.825L355.155 143.47L355.705 143.8C355.251 144.592 354.613 145.201 353.791 145.626C352.97 146.051 352.083 146.264 351.129 146.264ZM351.349 144.284C352.156 144.284 352.882 144.071 353.527 143.646C354.187 143.221 354.701 142.663 355.067 141.974C355.449 141.27 355.639 140.507 355.639 139.686C355.639 138.953 355.485 138.3 355.177 137.728C354.869 137.156 354.444 136.701 353.901 136.364C353.359 136.027 352.735 135.858 352.031 135.858C351.225 135.858 350.499 136.071 349.853 136.496C349.208 136.921 348.702 137.486 348.335 138.19C347.983 138.894 347.807 139.671 347.807 140.522C347.807 141.241 347.954 141.886 348.247 142.458C348.555 143.015 348.973 143.463 349.501 143.8C350.044 144.123 350.66 144.284 351.349 144.284ZM366.154 146.264C365.069 146.264 364.086 146.015 363.206 145.516C362.341 145.017 361.651 144.328 361.138 143.448C360.625 142.568 360.368 141.556 360.368 140.412C360.368 139.503 360.529 138.659 360.852 137.882C361.189 137.09 361.651 136.393 362.238 135.792C362.825 135.191 363.507 134.721 364.284 134.384C365.076 134.047 365.919 133.878 366.814 133.878C367.914 133.878 368.897 134.127 369.762 134.626C370.642 135.125 371.339 135.814 371.852 136.694C372.365 137.559 372.622 138.557 372.622 139.686C372.622 140.595 372.453 141.446 372.116 142.238C371.779 143.03 371.309 143.734 370.708 144.35C370.107 144.951 369.417 145.421 368.64 145.758C367.863 146.095 367.034 146.264 366.154 146.264ZM366.132 144.284C366.953 144.284 367.687 144.071 368.332 143.646C368.977 143.221 369.491 142.663 369.872 141.974C370.253 141.27 370.444 140.5 370.444 139.664C370.444 138.931 370.29 138.278 369.982 137.706C369.674 137.134 369.241 136.687 368.684 136.364C368.141 136.027 367.518 135.858 366.814 135.858C366.022 135.858 365.296 136.071 364.636 136.496C363.991 136.907 363.477 137.457 363.096 138.146C362.729 138.835 362.546 139.605 362.546 140.456C362.546 141.189 362.7 141.849 363.008 142.436C363.316 143.008 363.741 143.463 364.284 143.8C364.827 144.123 365.443 144.284 366.132 144.284ZM380.371 146.264C379.286 146.264 378.325 146.015 377.489 145.516C376.653 145.003 376 144.313 375.531 143.448C375.062 142.568 374.827 141.578 374.827 140.478C374.827 139.554 374.988 138.696 375.311 137.904C375.634 137.097 376.081 136.393 376.653 135.792C377.24 135.191 377.914 134.721 378.677 134.384C379.454 134.047 380.283 133.878 381.163 133.878C381.955 133.878 382.681 134.017 383.341 134.296C384.016 134.56 384.595 134.934 385.079 135.418C385.563 135.902 385.908 136.459 386.113 137.09L384.243 137.926C384.023 137.31 383.642 136.811 383.099 136.43C382.556 136.049 381.911 135.858 381.163 135.858C380.356 135.858 379.638 136.078 379.007 136.518C378.376 136.943 377.885 137.508 377.533 138.212C377.181 138.916 377.005 139.671 377.005 140.478C377.005 141.211 377.152 141.864 377.445 142.436C377.738 143.008 378.149 143.463 378.677 143.8C379.205 144.123 379.806 144.284 380.481 144.284C381.244 144.284 381.926 144.086 382.527 143.69C383.128 143.294 383.598 142.773 383.935 142.128L385.717 143.118C385.409 143.734 384.991 144.277 384.463 144.746C383.935 145.215 383.319 145.589 382.615 145.868C381.911 146.132 381.163 146.264 380.371 146.264ZM392.916 146.132C391.743 146.132 390.878 145.795 390.32 145.12C389.763 144.445 389.565 143.499 389.726 142.282L390.584 136.1H388.45L388.714 134.142H389.11C389.638 134.142 390.086 133.973 390.452 133.636C390.834 133.299 391.054 132.866 391.112 132.338L391.244 131.414H393.334L392.96 134.142H395.578L395.292 136.1H392.674L391.794 142.348C391.736 142.744 391.743 143.089 391.816 143.382C391.89 143.661 392.051 143.881 392.3 144.042C392.55 144.189 392.909 144.262 393.378 144.262C393.51 144.262 393.65 144.255 393.796 144.24C393.958 144.225 394.104 144.211 394.236 144.196L394.082 146.022C393.892 146.081 393.679 146.11 393.444 146.11C393.224 146.125 393.048 146.132 392.916 146.132ZM402.57 146.264C401.485 146.264 400.502 146.015 399.622 145.516C398.757 145.017 398.067 144.328 397.554 143.448C397.041 142.568 396.784 141.556 396.784 140.412C396.784 139.503 396.945 138.659 397.268 137.882C397.605 137.09 398.067 136.393 398.654 135.792C399.241 135.191 399.923 134.721 400.7 134.384C401.492 134.047 402.335 133.878 403.23 133.878C404.33 133.878 405.313 134.127 406.178 134.626C407.058 135.125 407.755 135.814 408.268 136.694C408.781 137.559 409.038 138.557 409.038 139.686C409.038 140.595 408.869 141.446 408.532 142.238C408.195 143.03 407.725 143.734 407.124 144.35C406.523 144.951 405.833 145.421 405.056 145.758C404.279 146.095 403.45 146.264 402.57 146.264ZM402.548 144.284C403.369 144.284 404.103 144.071 404.748 143.646C405.393 143.221 405.907 142.663 406.288 141.974C406.669 141.27 406.86 140.5 406.86 139.664C406.86 138.931 406.706 138.278 406.398 137.706C406.09 137.134 405.657 136.687 405.1 136.364C404.557 136.027 403.934 135.858 403.23 135.858C402.438 135.858 401.712 136.071 401.052 136.496C400.407 136.907 399.893 137.457 399.512 138.146C399.145 138.835 398.962 139.605 398.962 140.456C398.962 141.189 399.116 141.849 399.424 142.436C399.732 143.008 400.157 143.463 400.7 143.8C401.243 144.123 401.859 144.284 402.548 144.284ZM410.869 146L412.541 134.142H414.565L414.257 136.32L414.059 136.012C414.44 135.337 414.939 134.839 415.555 134.516C416.171 134.179 416.89 134.01 417.711 134.01H418.437L418.151 135.946H417.117C416.281 135.946 415.577 136.217 415.005 136.76C414.433 137.288 414.066 138.087 413.905 139.158L412.959 146H410.869ZM418.516 146L418.89 143.36H421.046L420.65 146H418.516Z" fill="#7F8386"/>
</svg>
